<svg xmlns="http://www.w3.org/2000/svg" xmlns:xlink="http://www.w3.org/1999/xlink" width="500" zoomAndPan="magnify" viewBox="0 0 375 374.999991" height="500" preserveAspectRatio="xMidYMid meet" version="1.0"><defs><g/><clipPath id="589d4a2dba"><path d="M 86 114.683594 L 258.761719 114.683594 L 258.761719 188 L 86 188 Z M 86 114.683594 " clip-rule="nonzero"/></clipPath><clipPath id="6cd35f3c21"><path d="M 42.273438 120.523438 L 76.773438 120.523438 L 76.773438 182.023438 L 42.273438 182.023438 Z M 42.273438 120.523438 " clip-rule="nonzero"/></clipPath><clipPath id="a8a602e372"><path d="M 298.214844 120.546875 L 332.714844 120.546875 L 332.714844 182.046875 L 298.214844 182.046875 Z M 298.214844 120.546875 " clip-rule="nonzero"/></clipPath></defs><g fill="#ffffff" fill-opacity="1"><g transform="translate(49.728517, 230.367407)"><g><path d="M 22.203125 -18.59375 C 21.878906 -19.238281 21.484375 -19.851562 21.015625 -20.4375 C 20.546875 -21.019531 20 -21.539062 19.375 -22 C 18.75 -22.457031 18.039062 -22.816406 17.25 -23.078125 C 16.46875 -23.347656 15.597656 -23.484375 14.640625 -23.484375 C 13.359375 -23.484375 12.226562 -23.285156 11.25 -22.890625 C 10.28125 -22.503906 9.460938 -21.972656 8.796875 -21.296875 C 8.128906 -20.617188 7.628906 -19.8125 7.296875 -18.875 C 6.960938 -17.945312 6.796875 -16.921875 6.796875 -15.796875 L 6.796875 -10.6875 C 6.796875 -9.59375 6.96875 -8.585938 7.3125 -7.671875 C 7.664062 -6.765625 8.179688 -5.972656 8.859375 -5.296875 C 9.535156 -4.617188 10.367188 -4.09375 11.359375 -3.71875 C 12.347656 -3.34375 13.492188 -3.15625 14.796875 -3.15625 C 16.640625 -3.15625 18.1875 -3.617188 19.4375 -4.546875 C 20.6875 -5.484375 21.632812 -6.675781 22.28125 -8.125 L 26.078125 -6.40625 C 25.679688 -5.46875 25.140625 -4.566406 24.453125 -3.703125 C 23.773438 -2.835938 22.957031 -2.070312 22 -1.40625 C 21.039062 -0.738281 19.941406 -0.195312 18.703125 0.21875 C 17.460938 0.632812 16.082031 0.84375 14.5625 0.84375 C 12.5625 0.84375 10.785156 0.535156 9.234375 -0.078125 C 7.691406 -0.691406 6.398438 -1.53125 5.359375 -2.59375 C 4.316406 -3.664062 3.519531 -4.90625 2.96875 -6.3125 C 2.425781 -7.726562 2.15625 -9.238281 2.15625 -10.84375 L 2.15625 -15.640625 C 2.15625 -17.265625 2.4375 -18.789062 3 -20.21875 C 3.5625 -21.644531 4.378906 -22.894531 5.453125 -23.96875 C 6.535156 -25.050781 7.859375 -25.90625 9.421875 -26.53125 C 10.984375 -27.164062 12.75 -27.484375 14.71875 -27.484375 C 16.15625 -27.484375 17.488281 -27.273438 18.71875 -26.859375 C 19.945312 -26.441406 21.046875 -25.898438 22.015625 -25.234375 C 22.992188 -24.566406 23.828125 -23.804688 24.515625 -22.953125 C 25.210938 -22.109375 25.734375 -21.226562 26.078125 -20.3125 Z M 22.203125 -18.59375 "/></g></g></g><g fill="#ffffff" fill-opacity="1"><g transform="translate(77.005805, 230.367407)"><g><path d="M 20.359375 -8.078125 C 20.359375 -6.742188 20.117188 -5.554688 19.640625 -4.515625 C 19.160156 -3.472656 18.503906 -2.59375 17.671875 -1.875 C 16.847656 -1.15625 15.875 -0.609375 14.75 -0.234375 C 13.632812 0.128906 12.4375 0.3125 11.15625 0.3125 C 9.875 0.3125 8.671875 0.128906 7.546875 -0.234375 C 6.429688 -0.609375 5.460938 -1.15625 4.640625 -1.875 C 3.816406 -2.59375 3.160156 -3.472656 2.671875 -4.515625 C 2.191406 -5.554688 1.953125 -6.742188 1.953125 -8.078125 L 1.953125 -10.6875 C 1.953125 -12.019531 2.191406 -13.210938 2.671875 -14.265625 C 3.160156 -15.316406 3.816406 -16.203125 4.640625 -16.921875 C 5.460938 -17.640625 6.429688 -18.191406 7.546875 -18.578125 C 8.671875 -18.960938 9.875 -19.15625 11.15625 -19.15625 C 12.4375 -19.15625 13.632812 -18.960938 14.75 -18.578125 C 15.875 -18.191406 16.847656 -17.640625 17.671875 -16.921875 C 18.503906 -16.203125 19.160156 -15.316406 19.640625 -14.265625 C 20.117188 -13.210938 20.359375 -12.019531 20.359375 -10.6875 Z M 16.125 -10.84375 C 16.125 -12.4375 15.695312 -13.691406 14.84375 -14.609375 C 13.988281 -15.535156 12.757812 -16 11.15625 -16 C 9.5625 -16 8.335938 -15.535156 7.484375 -14.609375 C 6.628906 -13.691406 6.203125 -12.4375 6.203125 -10.84375 L 6.203125 -7.953125 C 6.203125 -6.359375 6.628906 -5.109375 7.484375 -4.203125 C 8.335938 -3.296875 9.5625 -2.84375 11.15625 -2.84375 C 12.757812 -2.84375 13.988281 -3.296875 14.84375 -4.203125 C 15.695312 -5.109375 16.125 -6.359375 16.125 -7.953125 Z M 16.125 -10.84375 "/></g></g></g><g fill="#ffffff" fill-opacity="1"><g transform="translate(99.323591, 230.367407)"><g><path d="M 17.203125 0 L 16.71875 -3.515625 C 16.15625 -2.234375 15.25 -1.273438 14 -0.640625 C 12.75 -0.00390625 11.390625 0.3125 9.921875 0.3125 C 8.742188 0.3125 7.660156 0.113281 6.671875 -0.28125 C 5.691406 -0.675781 4.851562 -1.21875 4.15625 -1.90625 C 3.46875 -2.601562 2.925781 -3.429688 2.53125 -4.390625 C 2.144531 -5.359375 1.953125 -6.398438 1.953125 -7.515625 L 1.953125 -11.078125 C 1.953125 -12.222656 2.160156 -13.289062 2.578125 -14.28125 C 2.992188 -15.269531 3.550781 -16.125 4.25 -16.84375 C 4.957031 -17.5625 5.785156 -18.125 6.734375 -18.53125 C 7.679688 -18.945312 8.691406 -19.15625 9.765625 -19.15625 C 11.253906 -19.15625 12.476562 -18.921875 13.4375 -18.453125 C 14.394531 -17.992188 15.25 -17.296875 16 -16.359375 L 16 -26.640625 L 20.15625 -26.640625 L 20.15625 0 Z M 15.875 -10.953125 C 15.875 -12.398438 15.429688 -13.601562 14.546875 -14.5625 C 13.671875 -15.519531 12.472656 -16 10.953125 -16 C 9.492188 -16 8.335938 -15.570312 7.484375 -14.71875 C 6.628906 -13.863281 6.203125 -12.609375 6.203125 -10.953125 L 6.203125 -7.84375 C 6.203125 -6.1875 6.632812 -4.9375 7.5 -4.09375 C 8.363281 -3.257812 9.515625 -2.84375 10.953125 -2.84375 C 11.617188 -2.84375 12.242188 -2.945312 12.828125 -3.15625 C 13.421875 -3.375 13.941406 -3.679688 14.390625 -4.078125 C 14.847656 -4.484375 15.207031 -4.984375 15.46875 -5.578125 C 15.738281 -6.179688 15.875 -6.867188 15.875 -7.640625 Z M 15.875 -10.953125 "/></g></g></g><g fill="#ffffff" fill-opacity="1"><g transform="translate(121.961342, 230.367407)"><g><path d="M 13.046875 -1.484375 C 12.398438 -0.117188 11.8125 1.039062 11.28125 2 C 10.75 2.957031 10.160156 3.75 9.515625 4.375 C 8.878906 5 8.132812 5.453125 7.28125 5.734375 C 6.425781 6.015625 5.359375 6.15625 4.078125 6.15625 L 2.40625 6.15625 L 2.40625 3.125 L 3.953125 3.125 C 5.109375 3.125 5.941406 2.921875 6.453125 2.515625 C 6.972656 2.117188 7.410156 1.535156 7.765625 0.765625 L 8.125 -0.15625 L 0.4375 -18.71875 L 4.875 -18.71875 L 8.59375 -8.84375 L 10.28125 -4.3125 L 11.953125 -8.84375 L 15.5625 -18.71875 L 20 -18.71875 Z M 13.046875 -1.484375 "/></g></g></g><g fill="#ffffff" fill-opacity="1"><g transform="translate(142.519301, 230.367407)"><g/></g></g><g fill="#ffffff" fill-opacity="1"><g transform="translate(152.918272, 230.367407)"><g><path d="M 28.71875 0 L 28.71875 -20.6875 L 27.40625 -17.28125 L 19.71875 0 L 16.40625 0 L 8.796875 -17.28125 L 7.484375 -20.6875 L 7.484375 0 L 3.15625 0 L 3.15625 -26.640625 L 9.5625 -26.640625 L 16.953125 -9.125 L 18.203125 -5.84375 L 19.4375 -9.078125 L 26.765625 -26.640625 L 33.125 -26.640625 L 33.125 0 Z M 28.71875 0 "/></g></g></g><g fill="#ffffff" fill-opacity="1"><g transform="translate(189.194667, 230.367407)"><g><path d="M 19.28125 0.3125 C 18.800781 0.3125 18.335938 0.257812 17.890625 0.15625 C 17.453125 0.0507812 17.066406 -0.125 16.734375 -0.375 C 16.398438 -0.632812 16.140625 -0.96875 15.953125 -1.375 C 15.773438 -1.789062 15.695312 -2.304688 15.71875 -2.921875 C 14.863281 -1.878906 13.800781 -1.078125 12.53125 -0.515625 C 11.269531 0.0351562 9.921875 0.3125 8.484375 0.3125 C 6.484375 0.3125 4.863281 -0.164062 3.625 -1.125 C 2.382812 -2.082031 1.765625 -3.398438 1.765625 -5.078125 L 1.765625 -5.234375 C 1.765625 -6.441406 2.113281 -7.453125 2.8125 -8.265625 C 3.519531 -9.078125 4.46875 -9.703125 5.65625 -10.140625 C 6.84375 -10.578125 8.21875 -10.835938 9.78125 -10.921875 C 11.34375 -11.003906 12.988281 -10.925781 14.71875 -10.6875 L 14.71875 -12.125 C 14.71875 -13.320312 14.394531 -14.253906 13.75 -14.921875 C 13.113281 -15.585938 12.171875 -15.921875 10.921875 -15.921875 C 9.691406 -15.921875 8.695312 -15.644531 7.9375 -15.09375 C 7.175781 -14.550781 6.488281 -13.773438 5.875 -12.765625 L 2.796875 -14.359375 C 3.628906 -15.878906 4.691406 -17.054688 5.984375 -17.890625 C 7.273438 -18.734375 8.851562 -19.15625 10.71875 -19.15625 C 12.101562 -19.15625 13.300781 -18.972656 14.3125 -18.609375 C 15.332031 -18.253906 16.175781 -17.742188 16.84375 -17.078125 C 17.507812 -16.410156 18 -15.609375 18.3125 -14.671875 C 18.632812 -13.742188 18.796875 -12.707031 18.796875 -11.5625 L 18.796875 -4.125 C 18.796875 -3.582031 18.925781 -3.207031 19.1875 -3 C 19.457031 -2.789062 19.992188 -2.6875 20.796875 -2.6875 L 20.796875 0.3125 Z M 14.71875 -8.15625 C 11.84375 -8.613281 9.65625 -8.582031 8.15625 -8.0625 C 6.664062 -7.539062 5.921875 -6.640625 5.921875 -5.359375 L 5.921875 -5.28125 C 5.921875 -4.613281 6.21875 -4.039062 6.8125 -3.5625 C 7.414062 -3.082031 8.222656 -2.84375 9.234375 -2.84375 C 9.878906 -2.84375 10.519531 -2.9375 11.15625 -3.125 C 11.800781 -3.3125 12.390625 -3.5625 12.921875 -3.875 C 13.453125 -4.195312 13.882812 -4.578125 14.21875 -5.015625 C 14.550781 -5.460938 14.71875 -5.953125 14.71875 -6.484375 Z M 14.71875 -8.15625 "/></g></g></g><g fill="#ffffff" fill-opacity="1"><g transform="translate(210.952505, 230.367407)"><g><path d="M 14.40625 -14.953125 C 13.144531 -15.171875 12.0625 -15.234375 11.15625 -15.140625 C 10.25 -15.046875 9.503906 -14.835938 8.921875 -14.515625 C 8.335938 -14.203125 7.90625 -13.796875 7.625 -13.296875 C 7.34375 -12.804688 7.203125 -12.269531 7.203125 -11.6875 L 7.203125 0 L 2.921875 0 L 2.921875 -18.71875 L 6.640625 -18.71875 L 6.796875 -14.40625 C 7.171875 -15.382812 7.59375 -16.1875 8.0625 -16.8125 C 8.53125 -17.445312 9.066406 -17.929688 9.671875 -18.265625 C 10.285156 -18.597656 10.976562 -18.800781 11.75 -18.875 C 12.53125 -18.957031 13.414062 -18.945312 14.40625 -18.84375 Z M 14.40625 -14.953125 "/></g></g></g><g fill="#ffffff" fill-opacity="1"><g transform="translate(226.15099, 230.367407)"><g><path d="M 16.078125 0 L 10.515625 -8.40625 L 6.921875 -4.484375 L 6.921875 0 L 2.71875 0 L 2.71875 -26.640625 L 6.921875 -26.640625 L 6.921875 -9.078125 L 15.3125 -18.71875 L 19.953125 -18.71875 L 13.125 -10.953125 L 20.59375 0 Z M 16.078125 0 "/></g></g></g><g fill="#ffffff" fill-opacity="1"><g transform="translate(247.308871, 230.367407)"><g><path d="M 16.078125 0 L 16.078125 -12.125 C 16.078125 -14.707031 14.914062 -16 12.59375 -16 C 11.820312 -16 11.101562 -15.796875 10.4375 -15.390625 C 9.769531 -14.992188 9.1875 -14.472656 8.6875 -13.828125 C 8.195312 -13.191406 7.8125 -12.488281 7.53125 -11.71875 C 7.257812 -10.945312 7.125 -10.1875 7.125 -9.4375 L 7.125 0 L 2.921875 0 L 2.921875 -26.640625 L 7.125 -26.640625 L 7.125 -14.484375 C 7.914062 -16.128906 8.972656 -17.316406 10.296875 -18.046875 C 11.617188 -18.785156 12.988281 -19.15625 14.40625 -19.15625 C 15.332031 -19.15625 16.160156 -18.988281 16.890625 -18.65625 C 17.628906 -18.320312 18.257812 -17.863281 18.78125 -17.28125 C 19.300781 -16.695312 19.703125 -15.988281 19.984375 -15.15625 C 20.265625 -14.332031 20.40625 -13.441406 20.40625 -12.484375 L 20.40625 0 Z M 16.078125 0 "/></g></g></g><g fill="#ffffff" fill-opacity="1"><g transform="translate(270.386567, 230.367407)"><g><path d="M 19.28125 0.3125 C 18.800781 0.3125 18.335938 0.257812 17.890625 0.15625 C 17.453125 0.0507812 17.066406 -0.125 16.734375 -0.375 C 16.398438 -0.632812 16.140625 -0.96875 15.953125 -1.375 C 15.773438 -1.789062 15.695312 -2.304688 15.71875 -2.921875 C 14.863281 -1.878906 13.800781 -1.078125 12.53125 -0.515625 C 11.269531 0.0351562 9.921875 0.3125 8.484375 0.3125 C 6.484375 0.3125 4.863281 -0.164062 3.625 -1.125 C 2.382812 -2.082031 1.765625 -3.398438 1.765625 -5.078125 L 1.765625 -5.234375 C 1.765625 -6.441406 2.113281 -7.453125 2.8125 -8.265625 C 3.519531 -9.078125 4.46875 -9.703125 5.65625 -10.140625 C 6.84375 -10.578125 8.21875 -10.835938 9.78125 -10.921875 C 11.34375 -11.003906 12.988281 -10.925781 14.71875 -10.6875 L 14.71875 -12.125 C 14.71875 -13.320312 14.394531 -14.253906 13.75 -14.921875 C 13.113281 -15.585938 12.171875 -15.921875 10.921875 -15.921875 C 9.691406 -15.921875 8.695312 -15.644531 7.9375 -15.09375 C 7.175781 -14.550781 6.488281 -13.773438 5.875 -12.765625 L 2.796875 -14.359375 C 3.628906 -15.878906 4.691406 -17.054688 5.984375 -17.890625 C 7.273438 -18.734375 8.851562 -19.15625 10.71875 -19.15625 C 12.101562 -19.15625 13.300781 -18.972656 14.3125 -18.609375 C 15.332031 -18.253906 16.175781 -17.742188 16.84375 -17.078125 C 17.507812 -16.410156 18 -15.609375 18.3125 -14.671875 C 18.632812 -13.742188 18.796875 -12.707031 18.796875 -11.5625 L 18.796875 -4.125 C 18.796875 -3.582031 18.925781 -3.207031 19.1875 -3 C 19.457031 -2.789062 19.992188 -2.6875 20.796875 -2.6875 L 20.796875 0.3125 Z M 14.71875 -8.15625 C 11.84375 -8.613281 9.65625 -8.582031 8.15625 -8.0625 C 6.664062 -7.539062 5.921875 -6.640625 5.921875 -5.359375 L 5.921875 -5.28125 C 5.921875 -4.613281 6.21875 -4.039062 6.8125 -3.5625 C 7.414062 -3.082031 8.222656 -2.84375 9.234375 -2.84375 C 9.878906 -2.84375 10.519531 -2.9375 11.15625 -3.125 C 11.800781 -3.3125 12.390625 -3.5625 12.921875 -3.875 C 13.453125 -4.195312 13.882812 -4.578125 14.21875 -5.015625 C 14.550781 -5.460938 14.71875 -5.953125 14.71875 -6.484375 Z M 14.71875 -8.15625 "/></g></g></g><g fill="#ffffff" fill-opacity="1"><g transform="translate(292.144394, 230.367407)"><g><path d="M 26.125 0 L 26.125 -12.359375 C 26.125 -13.535156 25.894531 -14.4375 25.4375 -15.0625 C 24.988281 -15.6875 24.296875 -16 23.359375 -16 C 22.609375 -16 21.953125 -15.769531 21.390625 -15.3125 C 20.835938 -14.863281 20.367188 -14.296875 19.984375 -13.609375 C 19.597656 -12.929688 19.3125 -12.207031 19.125 -11.4375 C 18.9375 -10.664062 18.84375 -9.957031 18.84375 -9.3125 L 18.84375 0 L 14.515625 0 L 14.515625 -12.359375 C 14.515625 -13.535156 14.296875 -14.4375 13.859375 -15.0625 C 13.421875 -15.6875 12.722656 -16 11.765625 -16 C 11.015625 -16 10.359375 -15.769531 9.796875 -15.3125 C 9.234375 -14.863281 8.757812 -14.296875 8.375 -13.609375 C 7.988281 -12.929688 7.703125 -12.207031 7.515625 -11.4375 C 7.328125 -10.664062 7.234375 -9.957031 7.234375 -9.3125 L 7.234375 0 L 2.921875 0 L 2.921875 -18.71875 L 6.6875 -18.71875 L 6.796875 -13.953125 C 7.703125 -15.898438 8.726562 -17.253906 9.875 -18.015625 C 11.019531 -18.773438 12.273438 -19.15625 13.640625 -19.15625 C 14.972656 -19.15625 16.070312 -18.707031 16.9375 -17.8125 C 17.800781 -16.925781 18.367188 -15.816406 18.640625 -14.484375 C 19.492188 -16.160156 20.445312 -17.359375 21.5 -18.078125 C 22.550781 -18.796875 23.796875 -19.15625 25.234375 -19.15625 C 26.992188 -19.15625 28.300781 -18.546875 29.15625 -17.328125 C 30.007812 -16.117188 30.4375 -14.582031 30.4375 -12.71875 L 30.4375 0 Z M 26.125 0 "/></g></g></g><g fill="#ffffff" fill-opacity="1"><g transform="translate(69.320986, 256.467523)"><g><path d="M 4.4375 0.140625 C 3.738281 0.140625 3.117188 0.0546875 2.578125 -0.109375 C 2.035156 -0.285156 1.582031 -0.507812 1.21875 -0.78125 C 0.863281 -1.0625 0.59375 -1.367188 0.40625 -1.703125 L 1.484375 -3.03125 L 1.65625 -3.03125 C 1.957031 -2.582031 2.335938 -2.222656 2.796875 -1.953125 C 3.265625 -1.691406 3.8125 -1.5625 4.4375 -1.5625 C 4.957031 -1.5625 5.351562 -1.671875 5.625 -1.890625 C 5.894531 -2.117188 6.03125 -2.429688 6.03125 -2.828125 C 6.03125 -3.054688 5.984375 -3.25 5.890625 -3.40625 C 5.804688 -3.570312 5.664062 -3.710938 5.46875 -3.828125 C 5.269531 -3.941406 5 -4.039062 4.65625 -4.125 L 3.375 -4.421875 C 2.476562 -4.617188 1.804688 -4.957031 1.359375 -5.4375 C 0.921875 -5.914062 0.703125 -6.535156 0.703125 -7.296875 C 0.703125 -7.859375 0.84375 -8.351562 1.125 -8.78125 C 1.40625 -9.207031 1.816406 -9.539062 2.359375 -9.78125 C 2.898438 -10.019531 3.546875 -10.140625 4.296875 -10.140625 C 5.066406 -10.140625 5.726562 -10.035156 6.28125 -9.828125 C 6.832031 -9.628906 7.296875 -9.320312 7.671875 -8.90625 L 6.6875 -7.5625 L 6.515625 -7.5625 C 6.234375 -7.851562 5.910156 -8.070312 5.546875 -8.21875 C 5.179688 -8.375 4.765625 -8.453125 4.296875 -8.453125 C 3.753906 -8.453125 3.34375 -8.351562 3.0625 -8.15625 C 2.78125 -7.96875 2.640625 -7.707031 2.640625 -7.375 C 2.640625 -7.050781 2.738281 -6.796875 2.9375 -6.609375 C 3.132812 -6.429688 3.476562 -6.289062 3.96875 -6.1875 L 5.28125 -5.90625 C 6.25 -5.695312 6.953125 -5.347656 7.390625 -4.859375 C 7.828125 -4.367188 8.046875 -3.734375 8.046875 -2.953125 C 8.046875 -2.328125 7.910156 -1.78125 7.640625 -1.3125 C 7.367188 -0.851562 6.960938 -0.492188 6.421875 -0.234375 C 5.878906 0.015625 5.21875 0.140625 4.4375 0.140625 Z M 4.4375 0.140625 "/></g></g></g><g fill="#ffffff" fill-opacity="1"><g transform="translate(77.902131, 256.467523)"><g><path d="M 4.375 0.140625 C 3.644531 0.140625 3 -0.0078125 2.4375 -0.3125 C 1.875 -0.613281 1.4375 -1.054688 1.125 -1.640625 C 0.820312 -2.222656 0.671875 -2.929688 0.671875 -3.765625 C 0.671875 -4.597656 0.820312 -5.304688 1.125 -5.890625 C 1.4375 -6.484375 1.875 -6.929688 2.4375 -7.234375 C 3 -7.535156 3.644531 -7.6875 4.375 -7.6875 C 5.113281 -7.6875 5.765625 -7.535156 6.328125 -7.234375 C 6.890625 -6.929688 7.320312 -6.484375 7.625 -5.890625 C 7.9375 -5.304688 8.09375 -4.597656 8.09375 -3.765625 C 8.09375 -2.929688 7.9375 -2.222656 7.625 -1.640625 C 7.320312 -1.054688 6.890625 -0.613281 6.328125 -0.3125 C 5.765625 -0.0078125 5.113281 0.140625 4.375 0.140625 Z M 4.375 -1.46875 C 5.550781 -1.46875 6.140625 -2.234375 6.140625 -3.765625 C 6.140625 -4.566406 5.988281 -5.148438 5.6875 -5.515625 C 5.382812 -5.890625 4.945312 -6.078125 4.375 -6.078125 C 3.207031 -6.078125 2.625 -5.304688 2.625 -3.765625 C 2.625 -2.234375 3.207031 -1.46875 4.375 -1.46875 Z M 4.375 -1.46875 "/></g></g></g><g fill="#ffffff" fill-opacity="1"><g transform="translate(86.660912, 256.467523)"><g><path d="M 1.3125 0 L 1.3125 -6.046875 L 0.25 -6.046875 L 0.25 -7.546875 L 1.3125 -7.546875 C 1.238281 -7.867188 1.203125 -8.164062 1.203125 -8.4375 C 1.203125 -8.914062 1.3125 -9.320312 1.53125 -9.65625 C 1.75 -10 2.0625 -10.257812 2.46875 -10.4375 C 2.882812 -10.625 3.375 -10.71875 3.9375 -10.71875 C 4.769531 -10.71875 5.390625 -10.570312 5.796875 -10.28125 L 5.359375 -8.890625 L 5.21875 -8.859375 C 4.9375 -9.054688 4.570312 -9.15625 4.125 -9.15625 C 3.78125 -9.15625 3.523438 -9.070312 3.359375 -8.90625 C 3.191406 -8.738281 3.109375 -8.515625 3.109375 -8.234375 C 3.109375 -8.109375 3.113281 -7.992188 3.125 -7.890625 C 3.144531 -7.785156 3.175781 -7.671875 3.21875 -7.546875 L 5.359375 -7.546875 L 5.359375 -6.046875 L 3.21875 -6.046875 L 3.21875 0 Z M 1.3125 0 "/></g></g></g><g fill="#ffffff" fill-opacity="1"><g transform="translate(92.099282, 256.467523)"><g><path d="M 5.203125 -1.796875 L 5.6875 -0.390625 C 5.488281 -0.222656 5.234375 -0.09375 4.921875 0 C 4.609375 0.09375 4.257812 0.140625 3.875 0.140625 C 3.050781 0.140625 2.425781 -0.078125 2 -0.515625 C 1.582031 -0.960938 1.375 -1.613281 1.375 -2.46875 L 1.375 -6.046875 L 0.21875 -6.046875 L 0.21875 -7.546875 L 1.375 -7.546875 L 1.375 -9.015625 L 3.265625 -9.328125 L 3.265625 -7.546875 L 5.40625 -7.546875 L 5.40625 -6.046875 L 3.265625 -6.046875 L 3.265625 -2.59375 C 3.265625 -2.21875 3.34375 -1.945312 3.5 -1.78125 C 3.65625 -1.613281 3.878906 -1.53125 4.171875 -1.53125 C 4.515625 -1.53125 4.8125 -1.617188 5.0625 -1.796875 Z M 5.203125 -1.796875 "/></g></g></g><g fill="#ffffff" fill-opacity="1"><g transform="translate(97.95441, 256.467523)"><g><path d="M 4.046875 0 L 2.0625 0 L 0.28125 -7.546875 L 2.03125 -7.546875 L 3.140625 -2.4375 L 3.28125 -2.4375 L 4.71875 -7.546875 L 6.359375 -7.546875 L 7.84375 -2.4375 L 7.984375 -2.4375 L 9.046875 -7.546875 L 10.765625 -7.546875 L 8.984375 0 L 7 0 L 5.578125 -5.140625 L 5.421875 -5.140625 Z M 4.046875 0 "/></g></g></g><g fill="#ffffff" fill-opacity="1"><g transform="translate(108.974624, 256.467523)"><g><path d="M 2.9375 0.140625 C 2.457031 0.140625 2.039062 0.0507812 1.6875 -0.125 C 1.332031 -0.300781 1.054688 -0.5625 0.859375 -0.90625 C 0.671875 -1.25 0.578125 -1.660156 0.578125 -2.140625 C 0.578125 -2.585938 0.671875 -2.960938 0.859375 -3.265625 C 1.054688 -3.566406 1.351562 -3.816406 1.75 -4.015625 C 2.15625 -4.210938 2.679688 -4.363281 3.328125 -4.46875 C 3.773438 -4.539062 4.113281 -4.617188 4.34375 -4.703125 C 4.582031 -4.785156 4.742188 -4.878906 4.828125 -4.984375 C 4.910156 -5.097656 4.953125 -5.242188 4.953125 -5.421875 C 4.953125 -5.660156 4.863281 -5.84375 4.6875 -5.96875 C 4.519531 -6.09375 4.242188 -6.15625 3.859375 -6.15625 C 3.441406 -6.15625 3.039062 -6.0625 2.65625 -5.875 C 2.28125 -5.6875 1.953125 -5.441406 1.671875 -5.140625 L 1.53125 -5.140625 L 0.75 -6.34375 C 1.125 -6.757812 1.585938 -7.085938 2.140625 -7.328125 C 2.691406 -7.566406 3.296875 -7.6875 3.953125 -7.6875 C 4.953125 -7.6875 5.671875 -7.472656 6.109375 -7.046875 C 6.554688 -6.617188 6.78125 -6.019531 6.78125 -5.25 L 6.78125 -1.96875 C 6.78125 -1.632812 6.929688 -1.46875 7.234375 -1.46875 C 7.347656 -1.46875 7.457031 -1.488281 7.5625 -1.53125 L 7.65625 -1.5 L 7.796875 -0.171875 C 7.691406 -0.109375 7.546875 -0.0507812 7.359375 0 C 7.171875 0.0390625 6.96875 0.0625 6.75 0.0625 C 6.300781 0.0625 5.945312 -0.0234375 5.6875 -0.203125 C 5.4375 -0.378906 5.253906 -0.648438 5.140625 -1.015625 L 5 -1.03125 C 4.632812 -0.25 3.945312 0.140625 2.9375 0.140625 Z M 3.546875 -1.265625 C 3.984375 -1.265625 4.332031 -1.410156 4.59375 -1.703125 C 4.851562 -2.003906 4.984375 -2.414062 4.984375 -2.9375 L 4.984375 -3.703125 L 4.859375 -3.734375 C 4.742188 -3.640625 4.59375 -3.5625 4.40625 -3.5 C 4.21875 -3.4375 3.953125 -3.378906 3.609375 -3.328125 C 3.203125 -3.253906 2.90625 -3.132812 2.71875 -2.96875 C 2.539062 -2.800781 2.453125 -2.566406 2.453125 -2.265625 C 2.453125 -1.941406 2.546875 -1.691406 2.734375 -1.515625 C 2.929688 -1.347656 3.203125 -1.265625 3.546875 -1.265625 Z M 3.546875 -1.265625 "/></g></g></g><g fill="#ffffff" fill-opacity="1"><g transform="translate(116.920382, 256.467523)"><g><path d="M 1.09375 0 L 1.09375 -7.546875 L 2.921875 -7.546875 L 2.921875 -6.421875 L 3.0625 -6.390625 C 3.25 -6.804688 3.488281 -7.113281 3.78125 -7.3125 C 4.082031 -7.507812 4.445312 -7.609375 4.875 -7.609375 C 5.300781 -7.609375 5.625 -7.535156 5.84375 -7.390625 L 5.53125 -5.75 L 5.375 -5.734375 C 5.257812 -5.773438 5.144531 -5.804688 5.03125 -5.828125 C 4.914062 -5.859375 4.773438 -5.875 4.609375 -5.875 C 4.078125 -5.875 3.671875 -5.6875 3.390625 -5.3125 C 3.117188 -4.945312 2.984375 -4.351562 2.984375 -3.53125 L 2.984375 0 Z M 1.09375 0 "/></g></g></g><g fill="#ffffff" fill-opacity="1"><g transform="translate(122.830168, 256.467523)"><g><path d="M 7.453125 -3.34375 L 2.609375 -3.34375 C 2.660156 -2.6875 2.84375 -2.207031 3.15625 -1.90625 C 3.476562 -1.613281 3.914062 -1.46875 4.46875 -1.46875 C 4.90625 -1.46875 5.253906 -1.546875 5.515625 -1.703125 C 5.785156 -1.867188 6.003906 -2.113281 6.171875 -2.4375 L 6.3125 -2.4375 L 7.578125 -1.640625 C 7.328125 -1.109375 6.953125 -0.675781 6.453125 -0.34375 C 5.960938 -0.0195312 5.300781 0.140625 4.46875 0.140625 C 3.6875 0.140625 3.007812 -0.00390625 2.4375 -0.296875 C 1.875 -0.597656 1.4375 -1.039062 1.125 -1.625 C 0.820312 -2.207031 0.671875 -2.921875 0.671875 -3.765625 C 0.671875 -4.617188 0.832031 -5.335938 1.15625 -5.921875 C 1.476562 -6.515625 1.914062 -6.957031 2.46875 -7.25 C 3.019531 -7.539062 3.640625 -7.6875 4.328125 -7.6875 C 5.398438 -7.6875 6.21875 -7.398438 6.78125 -6.828125 C 7.351562 -6.265625 7.640625 -5.4375 7.640625 -4.34375 C 7.640625 -3.945312 7.625 -3.640625 7.59375 -3.421875 Z M 5.828125 -4.5625 C 5.804688 -5.132812 5.671875 -5.550781 5.421875 -5.8125 C 5.171875 -6.082031 4.804688 -6.21875 4.328125 -6.21875 C 3.378906 -6.21875 2.816406 -5.664062 2.640625 -4.5625 Z M 5.828125 -4.5625 "/></g></g></g><g fill="#ffffff" fill-opacity="1"><g transform="translate(131.021883, 256.467523)"><g/></g></g><g fill="#ffffff" fill-opacity="1"><g transform="translate(134.321798, 256.467523)"><g><path d="M 3.28125 -4.390625 L 3.28125 -1.65625 L 8.046875 -1.65625 L 8.046875 0 L 1.296875 0 L 1.296875 -10 L 7.9375 -10 L 7.9375 -8.34375 L 3.28125 -8.34375 L 3.28125 -6 L 7.34375 -6 L 7.34375 -4.390625 Z M 3.28125 -4.390625 "/></g></g></g><g fill="#ffffff" fill-opacity="1"><g transform="translate(142.909776, 256.467523)"><g><path d="M 1.09375 0 L 1.09375 -7.546875 L 2.90625 -7.546875 L 2.90625 -6.4375 L 3.046875 -6.40625 C 3.515625 -7.257812 4.273438 -7.6875 5.328125 -7.6875 C 6.203125 -7.6875 6.84375 -7.445312 7.25 -6.96875 C 7.65625 -6.5 7.859375 -5.8125 7.859375 -4.90625 L 7.859375 0 L 5.96875 0 L 5.96875 -4.671875 C 5.96875 -5.171875 5.863281 -5.53125 5.65625 -5.75 C 5.457031 -5.96875 5.140625 -6.078125 4.703125 -6.078125 C 4.160156 -6.078125 3.738281 -5.898438 3.4375 -5.546875 C 3.132812 -5.203125 2.984375 -4.65625 2.984375 -3.90625 L 2.984375 0 Z M 1.09375 0 "/></g></g></g><g fill="#ffffff" fill-opacity="1"><g transform="translate(151.736878, 256.467523)"><g><path d="M 3.90625 3.203125 C 2.664062 3.203125 1.75 3.019531 1.15625 2.65625 C 0.5625 2.289062 0.265625 1.78125 0.265625 1.125 C 0.265625 0.726562 0.390625 0.40625 0.640625 0.15625 C 0.898438 -0.09375 1.265625 -0.265625 1.734375 -0.359375 L 1.734375 -0.5 C 1.484375 -0.65625 1.300781 -0.828125 1.1875 -1.015625 C 1.070312 -1.203125 1.015625 -1.421875 1.015625 -1.671875 C 1.015625 -2.273438 1.410156 -2.6875 2.203125 -2.90625 L 2.203125 -3.046875 C 1.796875 -3.273438 1.488281 -3.5625 1.28125 -3.90625 C 1.082031 -4.25 0.984375 -4.664062 0.984375 -5.15625 C 0.984375 -5.65625 1.097656 -6.09375 1.328125 -6.46875 C 1.554688 -6.851562 1.890625 -7.148438 2.328125 -7.359375 C 2.773438 -7.578125 3.3125 -7.6875 3.9375 -7.6875 C 4.5625 -7.6875 5.0625 -7.578125 5.4375 -7.359375 C 5.664062 -7.691406 5.800781 -8.082031 5.84375 -8.53125 L 5.984375 -8.609375 L 7.34375 -8.28125 C 7.300781 -7.914062 7.195312 -7.609375 7.03125 -7.359375 C 6.863281 -7.117188 6.597656 -6.90625 6.234375 -6.71875 L 6.234375 -6.5625 C 6.660156 -6.195312 6.875 -5.675781 6.875 -5 C 6.875 -4.539062 6.757812 -4.125 6.53125 -3.75 C 6.300781 -3.382812 5.960938 -3.09375 5.515625 -2.875 C 5.066406 -2.664062 4.539062 -2.5625 3.9375 -2.5625 L 3.640625 -2.5625 C 3.460938 -2.570312 3.335938 -2.578125 3.265625 -2.578125 C 3.085938 -2.578125 2.945312 -2.53125 2.84375 -2.4375 C 2.75 -2.34375 2.703125 -2.222656 2.703125 -2.078125 C 2.703125 -1.921875 2.765625 -1.796875 2.890625 -1.703125 C 3.023438 -1.617188 3.210938 -1.570312 3.453125 -1.5625 L 5.140625 -1.5 C 6.816406 -1.445312 7.65625 -0.726562 7.65625 0.65625 C 7.65625 1.144531 7.53125 1.578125 7.28125 1.953125 C 7.03125 2.335938 6.625 2.640625 6.0625 2.859375 C 5.507812 3.085938 4.789062 3.203125 3.90625 3.203125 Z M 3.9375 -3.890625 C 4.300781 -3.890625 4.582031 -3.992188 4.78125 -4.203125 C 4.988281 -4.421875 5.09375 -4.726562 5.09375 -5.125 C 5.09375 -5.519531 4.988281 -5.820312 4.78125 -6.03125 C 4.582031 -6.238281 4.300781 -6.34375 3.9375 -6.34375 C 3.5625 -6.34375 3.273438 -6.238281 3.078125 -6.03125 C 2.878906 -5.820312 2.78125 -5.519531 2.78125 -5.125 C 2.78125 -4.71875 2.878906 -4.410156 3.078125 -4.203125 C 3.273438 -3.992188 3.5625 -3.890625 3.9375 -3.890625 Z M 3.90625 1.828125 C 4.550781 1.828125 5.019531 1.734375 5.3125 1.546875 C 5.613281 1.367188 5.765625 1.132812 5.765625 0.84375 C 5.765625 0.601562 5.6875 0.425781 5.53125 0.3125 C 5.382812 0.207031 5.144531 0.148438 4.8125 0.140625 L 3.328125 0.0625 C 3.273438 0.0625 3.226562 0.0625 3.1875 0.0625 C 3.144531 0.0625 3.101562 0.0625 3.0625 0.0625 C 2.738281 0.0625 2.492188 0.128906 2.328125 0.265625 C 2.160156 0.398438 2.078125 0.585938 2.078125 0.828125 C 2.078125 1.148438 2.226562 1.394531 2.53125 1.5625 C 2.84375 1.738281 3.300781 1.828125 3.90625 1.828125 Z M 3.90625 1.828125 "/></g></g></g><g fill="#ffffff" fill-opacity="1"><g transform="translate(159.573322, 256.467523)"><g><path d="M 2.03125 -8.4375 C 1.6875 -8.4375 1.40625 -8.539062 1.1875 -8.75 C 0.976562 -8.957031 0.875 -9.226562 0.875 -9.5625 C 0.875 -9.882812 0.976562 -10.148438 1.1875 -10.359375 C 1.40625 -10.566406 1.6875 -10.671875 2.03125 -10.671875 C 2.257812 -10.671875 2.460938 -10.617188 2.640625 -10.515625 C 2.816406 -10.421875 2.953125 -10.289062 3.046875 -10.125 C 3.148438 -9.957031 3.203125 -9.769531 3.203125 -9.5625 C 3.203125 -9.34375 3.148438 -9.148438 3.046875 -8.984375 C 2.953125 -8.816406 2.816406 -8.679688 2.640625 -8.578125 C 2.460938 -8.484375 2.257812 -8.4375 2.03125 -8.4375 Z M 1.09375 0 L 1.09375 -7.546875 L 2.984375 -7.546875 L 2.984375 0 Z M 1.09375 0 "/></g></g></g><g fill="#ffffff" fill-opacity="1"><g transform="translate(163.631603, 256.467523)"><g><path d="M 1.09375 0 L 1.09375 -7.546875 L 2.90625 -7.546875 L 2.90625 -6.4375 L 3.046875 -6.40625 C 3.515625 -7.257812 4.273438 -7.6875 5.328125 -7.6875 C 6.203125 -7.6875 6.84375 -7.445312 7.25 -6.96875 C 7.65625 -6.5 7.859375 -5.8125 7.859375 -4.90625 L 7.859375 0 L 5.96875 0 L 5.96875 -4.671875 C 5.96875 -5.171875 5.863281 -5.53125 5.65625 -5.75 C 5.457031 -5.96875 5.140625 -6.078125 4.703125 -6.078125 C 4.160156 -6.078125 3.738281 -5.898438 3.4375 -5.546875 C 3.132812 -5.203125 2.984375 -4.65625 2.984375 -3.90625 L 2.984375 0 Z M 1.09375 0 "/></g></g></g><g fill="#ffffff" fill-opacity="1"><g transform="translate(172.458705, 256.467523)"><g><path d="M 7.453125 -3.34375 L 2.609375 -3.34375 C 2.660156 -2.6875 2.84375 -2.207031 3.15625 -1.90625 C 3.476562 -1.613281 3.914062 -1.46875 4.46875 -1.46875 C 4.90625 -1.46875 5.253906 -1.546875 5.515625 -1.703125 C 5.785156 -1.867188 6.003906 -2.113281 6.171875 -2.4375 L 6.3125 -2.4375 L 7.578125 -1.640625 C 7.328125 -1.109375 6.953125 -0.675781 6.453125 -0.34375 C 5.960938 -0.0195312 5.300781 0.140625 4.46875 0.140625 C 3.6875 0.140625 3.007812 -0.00390625 2.4375 -0.296875 C 1.875 -0.597656 1.4375 -1.039062 1.125 -1.625 C 0.820312 -2.207031 0.671875 -2.921875 0.671875 -3.765625 C 0.671875 -4.617188 0.832031 -5.335938 1.15625 -5.921875 C 1.476562 -6.515625 1.914062 -6.957031 2.46875 -7.25 C 3.019531 -7.539062 3.640625 -7.6875 4.328125 -7.6875 C 5.398438 -7.6875 6.21875 -7.398438 6.78125 -6.828125 C 7.351562 -6.265625 7.640625 -5.4375 7.640625 -4.34375 C 7.640625 -3.945312 7.625 -3.640625 7.59375 -3.421875 Z M 5.828125 -4.5625 C 5.804688 -5.132812 5.671875 -5.550781 5.421875 -5.8125 C 5.171875 -6.082031 4.804688 -6.21875 4.328125 -6.21875 C 3.378906 -6.21875 2.816406 -5.664062 2.640625 -4.5625 Z M 5.828125 -4.5625 "/></g></g></g><g fill="#ffffff" fill-opacity="1"><g transform="translate(180.650419, 256.467523)"><g><path d="M 7.453125 -3.34375 L 2.609375 -3.34375 C 2.660156 -2.6875 2.84375 -2.207031 3.15625 -1.90625 C 3.476562 -1.613281 3.914062 -1.46875 4.46875 -1.46875 C 4.90625 -1.46875 5.253906 -1.546875 5.515625 -1.703125 C 5.785156 -1.867188 6.003906 -2.113281 6.171875 -2.4375 L 6.3125 -2.4375 L 7.578125 -1.640625 C 7.328125 -1.109375 6.953125 -0.675781 6.453125 -0.34375 C 5.960938 -0.0195312 5.300781 0.140625 4.46875 0.140625 C 3.6875 0.140625 3.007812 -0.00390625 2.4375 -0.296875 C 1.875 -0.597656 1.4375 -1.039062 1.125 -1.625 C 0.820312 -2.207031 0.671875 -2.921875 0.671875 -3.765625 C 0.671875 -4.617188 0.832031 -5.335938 1.15625 -5.921875 C 1.476562 -6.515625 1.914062 -6.957031 2.46875 -7.25 C 3.019531 -7.539062 3.640625 -7.6875 4.328125 -7.6875 C 5.398438 -7.6875 6.21875 -7.398438 6.78125 -6.828125 C 7.351562 -6.265625 7.640625 -5.4375 7.640625 -4.34375 C 7.640625 -3.945312 7.625 -3.640625 7.59375 -3.421875 Z M 5.828125 -4.5625 C 5.804688 -5.132812 5.671875 -5.550781 5.421875 -5.8125 C 5.171875 -6.082031 4.804688 -6.21875 4.328125 -6.21875 C 3.378906 -6.21875 2.816406 -5.664062 2.640625 -4.5625 Z M 5.828125 -4.5625 "/></g></g></g><g fill="#ffffff" fill-opacity="1"><g transform="translate(188.842134, 256.467523)"><g><path d="M 1.09375 0 L 1.09375 -7.546875 L 2.921875 -7.546875 L 2.921875 -6.421875 L 3.0625 -6.390625 C 3.25 -6.804688 3.488281 -7.113281 3.78125 -7.3125 C 4.082031 -7.507812 4.445312 -7.609375 4.875 -7.609375 C 5.300781 -7.609375 5.625 -7.535156 5.84375 -7.390625 L 5.53125 -5.75 L 5.375 -5.734375 C 5.257812 -5.773438 5.144531 -5.804688 5.03125 -5.828125 C 4.914062 -5.859375 4.773438 -5.875 4.609375 -5.875 C 4.078125 -5.875 3.671875 -5.6875 3.390625 -5.3125 C 3.117188 -4.945312 2.984375 -4.351562 2.984375 -3.53125 L 2.984375 0 Z M 1.09375 0 "/></g></g></g><g fill="#ffffff" fill-opacity="1"><g transform="translate(194.75192, 256.467523)"><g/></g></g><g fill="#ffffff" fill-opacity="1"><g transform="translate(198.051835, 256.467523)"><g><path d="M 4.09375 0.140625 C 3.363281 0.140625 2.726562 0.0195312 2.1875 -0.21875 C 1.644531 -0.46875 1.226562 -0.820312 0.9375 -1.28125 C 0.644531 -1.738281 0.5 -2.273438 0.5 -2.890625 C 0.5 -3.546875 0.660156 -4.085938 0.984375 -4.515625 C 1.316406 -4.953125 1.8125 -5.3125 2.46875 -5.59375 L 2.484375 -5.734375 C 2.179688 -6.109375 1.960938 -6.445312 1.828125 -6.75 C 1.703125 -7.0625 1.640625 -7.40625 1.640625 -7.78125 C 1.640625 -8.25 1.75 -8.660156 1.96875 -9.015625 C 2.1875 -9.367188 2.503906 -9.644531 2.921875 -9.84375 C 3.335938 -10.039062 3.832031 -10.140625 4.40625 -10.140625 C 4.945312 -10.140625 5.410156 -10.046875 5.796875 -9.859375 C 6.191406 -9.679688 6.488281 -9.429688 6.6875 -9.109375 C 6.894531 -8.785156 7 -8.410156 7 -7.984375 C 7 -7.410156 6.828125 -6.914062 6.484375 -6.5 C 6.148438 -6.082031 5.628906 -5.738281 4.921875 -5.46875 L 4.90625 -5.3125 L 6.75 -2.875 C 6.851562 -3.113281 6.925781 -3.382812 6.96875 -3.6875 C 7.019531 -4 7.046875 -4.347656 7.046875 -4.734375 L 7.03125 -5.09375 L 8.640625 -5.09375 C 8.640625 -3.6875 8.363281 -2.550781 7.8125 -1.6875 C 7.925781 -1.59375 8.023438 -1.523438 8.109375 -1.484375 C 8.191406 -1.453125 8.28125 -1.4375 8.375 -1.4375 C 8.476562 -1.4375 8.554688 -1.441406 8.609375 -1.453125 C 8.671875 -1.460938 8.738281 -1.476562 8.8125 -1.5 L 8.921875 -1.46875 L 9.15625 -0.09375 C 9.070312 -0.03125 8.945312 0.015625 8.78125 0.046875 C 8.625 0.078125 8.445312 0.09375 8.25 0.09375 C 7.914062 0.09375 7.625 0.0390625 7.375 -0.0625 C 7.125 -0.175781 6.882812 -0.347656 6.65625 -0.578125 L 6.515625 -0.578125 C 5.941406 -0.0976562 5.132812 0.140625 4.09375 0.140625 Z M 4.078125 -6.40625 C 4.503906 -6.613281 4.8125 -6.828125 5 -7.046875 C 5.195312 -7.265625 5.296875 -7.535156 5.296875 -7.859375 C 5.296875 -8.140625 5.210938 -8.351562 5.046875 -8.5 C 4.878906 -8.65625 4.65625 -8.734375 4.375 -8.734375 C 4.09375 -8.734375 3.867188 -8.648438 3.703125 -8.484375 C 3.535156 -8.328125 3.453125 -8.101562 3.453125 -7.8125 C 3.453125 -7.59375 3.492188 -7.382812 3.578125 -7.1875 C 3.671875 -7 3.835938 -6.738281 4.078125 -6.40625 Z M 4.328125 -1.484375 C 4.765625 -1.484375 5.140625 -1.566406 5.453125 -1.734375 L 3.234375 -4.5625 C 2.960938 -4.394531 2.765625 -4.191406 2.640625 -3.953125 C 2.515625 -3.722656 2.453125 -3.445312 2.453125 -3.125 C 2.453125 -2.789062 2.523438 -2.5 2.671875 -2.25 C 2.828125 -2.007812 3.046875 -1.820312 3.328125 -1.6875 C 3.617188 -1.550781 3.953125 -1.484375 4.328125 -1.484375 Z M 4.328125 -1.484375 "/></g></g></g><g fill="#ffffff" fill-opacity="1"><g transform="translate(207.384514, 256.467523)"><g/></g></g><g fill="#ffffff" fill-opacity="1"><g transform="translate(210.684429, 256.467523)"><g><path d="M 5.15625 -10 C 5.875 -10 6.488281 -9.863281 7 -9.59375 C 7.507812 -9.332031 7.890625 -8.96875 8.140625 -8.5 C 8.398438 -8.03125 8.53125 -7.484375 8.53125 -6.859375 C 8.53125 -6.234375 8.398438 -5.6875 8.140625 -5.21875 C 7.890625 -4.75 7.507812 -4.378906 7 -4.109375 C 6.488281 -3.847656 5.875 -3.71875 5.15625 -3.71875 L 3.28125 -3.71875 L 3.28125 0 L 1.296875 0 L 1.296875 -10 Z M 4.90625 -5.296875 C 6 -5.296875 6.546875 -5.816406 6.546875 -6.859375 C 6.546875 -7.898438 6 -8.421875 4.90625 -8.421875 L 3.28125 -8.421875 L 3.28125 -5.296875 Z M 4.90625 -5.296875 "/></g></g></g><g fill="#ffffff" fill-opacity="1"><g transform="translate(219.812145, 256.467523)"><g><path d="M 1.09375 0 L 1.09375 -10.5625 L 2.984375 -10.5625 L 2.984375 -6.5625 L 3.125 -6.53125 C 3.375 -6.894531 3.679688 -7.175781 4.046875 -7.375 C 4.410156 -7.582031 4.847656 -7.6875 5.359375 -7.6875 C 7.023438 -7.6875 7.859375 -6.742188 7.859375 -4.859375 L 7.859375 0 L 5.96875 0 L 5.96875 -4.609375 C 5.96875 -5.128906 5.863281 -5.503906 5.65625 -5.734375 C 5.457031 -5.960938 5.140625 -6.078125 4.703125 -6.078125 C 4.171875 -6.078125 3.75 -5.898438 3.4375 -5.546875 C 3.132812 -5.203125 2.984375 -4.65625 2.984375 -3.90625 L 2.984375 0 Z M 1.09375 0 "/></g></g></g><g fill="#ffffff" fill-opacity="1"><g transform="translate(228.639247, 256.467523)"><g><path d="M 4.375 0.140625 C 3.644531 0.140625 3 -0.0078125 2.4375 -0.3125 C 1.875 -0.613281 1.4375 -1.054688 1.125 -1.640625 C 0.820312 -2.222656 0.671875 -2.929688 0.671875 -3.765625 C 0.671875 -4.597656 0.820312 -5.304688 1.125 -5.890625 C 1.4375 -6.484375 1.875 -6.929688 2.4375 -7.234375 C 3 -7.535156 3.644531 -7.6875 4.375 -7.6875 C 5.113281 -7.6875 5.765625 -7.535156 6.328125 -7.234375 C 6.890625 -6.929688 7.320312 -6.484375 7.625 -5.890625 C 7.9375 -5.304688 8.09375 -4.597656 8.09375 -3.765625 C 8.09375 -2.929688 7.9375 -2.222656 7.625 -1.640625 C 7.320312 -1.054688 6.890625 -0.613281 6.328125 -0.3125 C 5.765625 -0.0078125 5.113281 0.140625 4.375 0.140625 Z M 4.375 -1.46875 C 5.550781 -1.46875 6.140625 -2.234375 6.140625 -3.765625 C 6.140625 -4.566406 5.988281 -5.148438 5.6875 -5.515625 C 5.382812 -5.890625 4.945312 -6.078125 4.375 -6.078125 C 3.207031 -6.078125 2.625 -5.304688 2.625 -3.765625 C 2.625 -2.234375 3.207031 -1.46875 4.375 -1.46875 Z M 4.375 -1.46875 "/></g></g></g><g fill="#ffffff" fill-opacity="1"><g transform="translate(237.398028, 256.467523)"><g><path d="M 5.203125 -1.796875 L 5.6875 -0.390625 C 5.488281 -0.222656 5.234375 -0.09375 4.921875 0 C 4.609375 0.09375 4.257812 0.140625 3.875 0.140625 C 3.050781 0.140625 2.425781 -0.078125 2 -0.515625 C 1.582031 -0.960938 1.375 -1.613281 1.375 -2.46875 L 1.375 -6.046875 L 0.21875 -6.046875 L 0.21875 -7.546875 L 1.375 -7.546875 L 1.375 -9.015625 L 3.265625 -9.328125 L 3.265625 -7.546875 L 5.40625 -7.546875 L 5.40625 -6.046875 L 3.265625 -6.046875 L 3.265625 -2.59375 C 3.265625 -2.21875 3.34375 -1.945312 3.5 -1.78125 C 3.65625 -1.613281 3.878906 -1.53125 4.171875 -1.53125 C 4.515625 -1.53125 4.8125 -1.617188 5.0625 -1.796875 Z M 5.203125 -1.796875 "/></g></g></g><g fill="#ffffff" fill-opacity="1"><g transform="translate(243.253157, 256.467523)"><g><path d="M 4.375 0.140625 C 3.644531 0.140625 3 -0.0078125 2.4375 -0.3125 C 1.875 -0.613281 1.4375 -1.054688 1.125 -1.640625 C 0.820312 -2.222656 0.671875 -2.929688 0.671875 -3.765625 C 0.671875 -4.597656 0.820312 -5.304688 1.125 -5.890625 C 1.4375 -6.484375 1.875 -6.929688 2.4375 -7.234375 C 3 -7.535156 3.644531 -7.6875 4.375 -7.6875 C 5.113281 -7.6875 5.765625 -7.535156 6.328125 -7.234375 C 6.890625 -6.929688 7.320312 -6.484375 7.625 -5.890625 C 7.9375 -5.304688 8.09375 -4.597656 8.09375 -3.765625 C 8.09375 -2.929688 7.9375 -2.222656 7.625 -1.640625 C 7.320312 -1.054688 6.890625 -0.613281 6.328125 -0.3125 C 5.765625 -0.0078125 5.113281 0.140625 4.375 0.140625 Z M 4.375 -1.46875 C 5.550781 -1.46875 6.140625 -2.234375 6.140625 -3.765625 C 6.140625 -4.566406 5.988281 -5.148438 5.6875 -5.515625 C 5.382812 -5.890625 4.945312 -6.078125 4.375 -6.078125 C 3.207031 -6.078125 2.625 -5.304688 2.625 -3.765625 C 2.625 -2.234375 3.207031 -1.46875 4.375 -1.46875 Z M 4.375 -1.46875 "/></g></g></g><g fill="#ffffff" fill-opacity="1"><g transform="translate(252.011937, 256.467523)"><g><path d="M 3.90625 3.203125 C 2.664062 3.203125 1.75 3.019531 1.15625 2.65625 C 0.5625 2.289062 0.265625 1.78125 0.265625 1.125 C 0.265625 0.726562 0.390625 0.40625 0.640625 0.15625 C 0.898438 -0.09375 1.265625 -0.265625 1.734375 -0.359375 L 1.734375 -0.5 C 1.484375 -0.65625 1.300781 -0.828125 1.1875 -1.015625 C 1.070312 -1.203125 1.015625 -1.421875 1.015625 -1.671875 C 1.015625 -2.273438 1.410156 -2.6875 2.203125 -2.90625 L 2.203125 -3.046875 C 1.796875 -3.273438 1.488281 -3.5625 1.28125 -3.90625 C 1.082031 -4.25 0.984375 -4.664062 0.984375 -5.15625 C 0.984375 -5.65625 1.097656 -6.09375 1.328125 -6.46875 C 1.554688 -6.851562 1.890625 -7.148438 2.328125 -7.359375 C 2.773438 -7.578125 3.3125 -7.6875 3.9375 -7.6875 C 4.5625 -7.6875 5.0625 -7.578125 5.4375 -7.359375 C 5.664062 -7.691406 5.800781 -8.082031 5.84375 -8.53125 L 5.984375 -8.609375 L 7.34375 -8.28125 C 7.300781 -7.914062 7.195312 -7.609375 7.03125 -7.359375 C 6.863281 -7.117188 6.597656 -6.90625 6.234375 -6.71875 L 6.234375 -6.5625 C 6.660156 -6.195312 6.875 -5.675781 6.875 -5 C 6.875 -4.539062 6.757812 -4.125 6.53125 -3.75 C 6.300781 -3.382812 5.960938 -3.09375 5.515625 -2.875 C 5.066406 -2.664062 4.539062 -2.5625 3.9375 -2.5625 L 3.640625 -2.5625 C 3.460938 -2.570312 3.335938 -2.578125 3.265625 -2.578125 C 3.085938 -2.578125 2.945312 -2.53125 2.84375 -2.4375 C 2.75 -2.34375 2.703125 -2.222656 2.703125 -2.078125 C 2.703125 -1.921875 2.765625 -1.796875 2.890625 -1.703125 C 3.023438 -1.617188 3.210938 -1.570312 3.453125 -1.5625 L 5.140625 -1.5 C 6.816406 -1.445312 7.65625 -0.726562 7.65625 0.65625 C 7.65625 1.144531 7.53125 1.578125 7.28125 1.953125 C 7.03125 2.335938 6.625 2.640625 6.0625 2.859375 C 5.507812 3.085938 4.789062 3.203125 3.90625 3.203125 Z M 3.9375 -3.890625 C 4.300781 -3.890625 4.582031 -3.992188 4.78125 -4.203125 C 4.988281 -4.421875 5.09375 -4.726562 5.09375 -5.125 C 5.09375 -5.519531 4.988281 -5.820312 4.78125 -6.03125 C 4.582031 -6.238281 4.300781 -6.34375 3.9375 -6.34375 C 3.5625 -6.34375 3.273438 -6.238281 3.078125 -6.03125 C 2.878906 -5.820312 2.78125 -5.519531 2.78125 -5.125 C 2.78125 -4.71875 2.878906 -4.410156 3.078125 -4.203125 C 3.273438 -3.992188 3.5625 -3.890625 3.9375 -3.890625 Z M 3.90625 1.828125 C 4.550781 1.828125 5.019531 1.734375 5.3125 1.546875 C 5.613281 1.367188 5.765625 1.132812 5.765625 0.84375 C 5.765625 0.601562 5.6875 0.425781 5.53125 0.3125 C 5.382812 0.207031 5.144531 0.148438 4.8125 0.140625 L 3.328125 0.0625 C 3.273438 0.0625 3.226562 0.0625 3.1875 0.0625 C 3.144531 0.0625 3.101562 0.0625 3.0625 0.0625 C 2.738281 0.0625 2.492188 0.128906 2.328125 0.265625 C 2.160156 0.398438 2.078125 0.585938 2.078125 0.828125 C 2.078125 1.148438 2.226562 1.394531 2.53125 1.5625 C 2.84375 1.738281 3.300781 1.828125 3.90625 1.828125 Z M 3.90625 1.828125 "/></g></g></g><g fill="#ffffff" fill-opacity="1"><g transform="translate(259.848382, 256.467523)"><g><path d="M 1.09375 0 L 1.09375 -7.546875 L 2.921875 -7.546875 L 2.921875 -6.421875 L 3.0625 -6.390625 C 3.25 -6.804688 3.488281 -7.113281 3.78125 -7.3125 C 4.082031 -7.507812 4.445312 -7.609375 4.875 -7.609375 C 5.300781 -7.609375 5.625 -7.535156 5.84375 -7.390625 L 5.53125 -5.75 L 5.375 -5.734375 C 5.257812 -5.773438 5.144531 -5.804688 5.03125 -5.828125 C 4.914062 -5.859375 4.773438 -5.875 4.609375 -5.875 C 4.078125 -5.875 3.671875 -5.6875 3.390625 -5.3125 C 3.117188 -4.945312 2.984375 -4.351562 2.984375 -3.53125 L 2.984375 0 Z M 1.09375 0 "/></g></g></g><g fill="#ffffff" fill-opacity="1"><g transform="translate(265.758168, 256.467523)"><g><path d="M 2.9375 0.140625 C 2.457031 0.140625 2.039062 0.0507812 1.6875 -0.125 C 1.332031 -0.300781 1.054688 -0.5625 0.859375 -0.90625 C 0.671875 -1.25 0.578125 -1.660156 0.578125 -2.140625 C 0.578125 -2.585938 0.671875 -2.960938 0.859375 -3.265625 C 1.054688 -3.566406 1.351562 -3.816406 1.75 -4.015625 C 2.15625 -4.210938 2.679688 -4.363281 3.328125 -4.46875 C 3.773438 -4.539062 4.113281 -4.617188 4.34375 -4.703125 C 4.582031 -4.785156 4.742188 -4.878906 4.828125 -4.984375 C 4.910156 -5.097656 4.953125 -5.242188 4.953125 -5.421875 C 4.953125 -5.660156 4.863281 -5.84375 4.6875 -5.96875 C 4.519531 -6.09375 4.242188 -6.15625 3.859375 -6.15625 C 3.441406 -6.15625 3.039062 -6.0625 2.65625 -5.875 C 2.28125 -5.6875 1.953125 -5.441406 1.671875 -5.140625 L 1.53125 -5.140625 L 0.75 -6.34375 C 1.125 -6.757812 1.585938 -7.085938 2.140625 -7.328125 C 2.691406 -7.566406 3.296875 -7.6875 3.953125 -7.6875 C 4.953125 -7.6875 5.671875 -7.472656 6.109375 -7.046875 C 6.554688 -6.617188 6.78125 -6.019531 6.78125 -5.25 L 6.78125 -1.96875 C 6.78125 -1.632812 6.929688 -1.46875 7.234375 -1.46875 C 7.347656 -1.46875 7.457031 -1.488281 7.5625 -1.53125 L 7.65625 -1.5 L 7.796875 -0.171875 C 7.691406 -0.109375 7.546875 -0.0507812 7.359375 0 C 7.171875 0.0390625 6.96875 0.0625 6.75 0.0625 C 6.300781 0.0625 5.945312 -0.0234375 5.6875 -0.203125 C 5.4375 -0.378906 5.253906 -0.648438 5.140625 -1.015625 L 5 -1.03125 C 4.632812 -0.25 3.945312 0.140625 2.9375 0.140625 Z M 3.546875 -1.265625 C 3.984375 -1.265625 4.332031 -1.410156 4.59375 -1.703125 C 4.851562 -2.003906 4.984375 -2.414062 4.984375 -2.9375 L 4.984375 -3.703125 L 4.859375 -3.734375 C 4.742188 -3.640625 4.59375 -3.5625 4.40625 -3.5 C 4.21875 -3.4375 3.953125 -3.378906 3.609375 -3.328125 C 3.203125 -3.253906 2.90625 -3.132812 2.71875 -2.96875 C 2.539062 -2.800781 2.453125 -2.566406 2.453125 -2.265625 C 2.453125 -1.941406 2.546875 -1.691406 2.734375 -1.515625 C 2.929688 -1.347656 3.203125 -1.265625 3.546875 -1.265625 Z M 3.546875 -1.265625 "/></g></g></g><g fill="#ffffff" fill-opacity="1"><g transform="translate(273.703937, 256.467523)"><g><path d="M 1.09375 3.0625 L 1.09375 -7.546875 L 2.984375 -7.546875 L 2.984375 -6.5625 L 3.125 -6.53125 C 3.34375 -6.914062 3.640625 -7.203125 4.015625 -7.390625 C 4.390625 -7.585938 4.828125 -7.6875 5.328125 -7.6875 C 5.929688 -7.6875 6.460938 -7.539062 6.921875 -7.25 C 7.378906 -6.96875 7.734375 -6.53125 7.984375 -5.9375 C 8.234375 -5.351562 8.359375 -4.628906 8.359375 -3.765625 C 8.359375 -2.898438 8.222656 -2.175781 7.953125 -1.59375 C 7.691406 -1.007812 7.320312 -0.570312 6.84375 -0.28125 C 6.375 0 5.828125 0.140625 5.203125 0.140625 C 4.734375 0.140625 4.328125 0.0625 3.984375 -0.09375 C 3.648438 -0.25 3.363281 -0.492188 3.125 -0.828125 L 2.984375 -0.796875 L 2.984375 3.0625 Z M 4.6875 -1.46875 C 5.25 -1.46875 5.675781 -1.648438 5.96875 -2.015625 C 6.257812 -2.390625 6.40625 -2.972656 6.40625 -3.765625 C 6.40625 -4.566406 6.257812 -5.148438 5.96875 -5.515625 C 5.675781 -5.890625 5.25 -6.078125 4.6875 -6.078125 C 4.15625 -6.078125 3.734375 -5.882812 3.421875 -5.5 C 3.109375 -5.113281 2.953125 -4.535156 2.953125 -3.765625 C 2.953125 -2.992188 3.109375 -2.414062 3.421875 -2.03125 C 3.734375 -1.65625 4.15625 -1.46875 4.6875 -1.46875 Z M 4.6875 -1.46875 "/></g></g></g><g fill="#ffffff" fill-opacity="1"><g transform="translate(282.72916, 256.467523)"><g><path d="M 1.09375 0 L 1.09375 -10.5625 L 2.984375 -10.5625 L 2.984375 -6.5625 L 3.125 -6.53125 C 3.375 -6.894531 3.679688 -7.175781 4.046875 -7.375 C 4.410156 -7.582031 4.847656 -7.6875 5.359375 -7.6875 C 7.023438 -7.6875 7.859375 -6.742188 7.859375 -4.859375 L 7.859375 0 L 5.96875 0 L 5.96875 -4.609375 C 5.96875 -5.128906 5.863281 -5.503906 5.65625 -5.734375 C 5.457031 -5.960938 5.140625 -6.078125 4.703125 -6.078125 C 4.171875 -6.078125 3.75 -5.898438 3.4375 -5.546875 C 3.132812 -5.203125 2.984375 -4.65625 2.984375 -3.90625 L 2.984375 0 Z M 1.09375 0 "/></g></g></g><g fill="#ffffff" fill-opacity="1"><g transform="translate(291.556262, 256.467523)"><g><path d="M 7.453125 -3.34375 L 2.609375 -3.34375 C 2.660156 -2.6875 2.84375 -2.207031 3.15625 -1.90625 C 3.476562 -1.613281 3.914062 -1.46875 4.46875 -1.46875 C 4.90625 -1.46875 5.253906 -1.546875 5.515625 -1.703125 C 5.785156 -1.867188 6.003906 -2.113281 6.171875 -2.4375 L 6.3125 -2.4375 L 7.578125 -1.640625 C 7.328125 -1.109375 6.953125 -0.675781 6.453125 -0.34375 C 5.960938 -0.0195312 5.300781 0.140625 4.46875 0.140625 C 3.6875 0.140625 3.007812 -0.00390625 2.4375 -0.296875 C 1.875 -0.597656 1.4375 -1.039062 1.125 -1.625 C 0.820312 -2.207031 0.671875 -2.921875 0.671875 -3.765625 C 0.671875 -4.617188 0.832031 -5.335938 1.15625 -5.921875 C 1.476562 -6.515625 1.914062 -6.957031 2.46875 -7.25 C 3.019531 -7.539062 3.640625 -7.6875 4.328125 -7.6875 C 5.398438 -7.6875 6.21875 -7.398438 6.78125 -6.828125 C 7.351562 -6.265625 7.640625 -5.4375 7.640625 -4.34375 C 7.640625 -3.945312 7.625 -3.640625 7.59375 -3.421875 Z M 5.828125 -4.5625 C 5.804688 -5.132812 5.671875 -5.550781 5.421875 -5.8125 C 5.171875 -6.082031 4.804688 -6.21875 4.328125 -6.21875 C 3.378906 -6.21875 2.816406 -5.664062 2.640625 -4.5625 Z M 5.828125 -4.5625 "/></g></g></g><g fill="#ffffff" fill-opacity="1"><g transform="translate(299.747988, 256.467523)"><g><path d="M 1.09375 0 L 1.09375 -7.546875 L 2.921875 -7.546875 L 2.921875 -6.421875 L 3.0625 -6.390625 C 3.25 -6.804688 3.488281 -7.113281 3.78125 -7.3125 C 4.082031 -7.507812 4.445312 -7.609375 4.875 -7.609375 C 5.300781 -7.609375 5.625 -7.535156 5.84375 -7.390625 L 5.53125 -5.75 L 5.375 -5.734375 C 5.257812 -5.773438 5.144531 -5.804688 5.03125 -5.828125 C 4.914062 -5.859375 4.773438 -5.875 4.609375 -5.875 C 4.078125 -5.875 3.671875 -5.6875 3.390625 -5.3125 C 3.117188 -4.945312 2.984375 -4.351562 2.984375 -3.53125 L 2.984375 0 Z M 1.09375 0 "/></g></g></g><g clip-path="url(#589d4a2dba)"><path fill="#ffffff" d="M 126.433594 157.042969 L 86.414062 187.878906 L 127.449219 146.839844 L 138.210938 152.429688 L 155.59375 129.851562 L 162.835938 129.6875 L 176.597656 114.683594 L 192.492188 138.417969 L 198.988281 131.011719 L 210.886719 146.675781 L 216.890625 147.007812 L 258.152344 187.878906 L 230.777344 168.257812 L 220.015625 167.929688 L 207.867188 156.070312 L 195.242188 164.96875 L 203.996094 151.621094 L 197.25 141.894531 L 159.835938 173.207031 L 177.09375 150.628906 L 167.097656 145.351562 L 174.09375 140.902344 L 175.480469 124.574219 L 122.070312 177.984375 L 132.953125 161.347656 Z M 126.433594 157.042969 " fill-opacity="1" fill-rule="evenodd"/></g><path stroke-linecap="butt" transform="matrix(0.232921, -0.712915, 0.712915, 0.232921, 267.144421, 179.042566)" fill="none" stroke-linejoin="miter" d="M 0.00202283 3.999356 L 80.498244 4.000436 " stroke="#ffffff" stroke-width="8" stroke-opacity="1" stroke-miterlimit="4"/><g clip-path="url(#6cd35f3c21)"><path fill="#ffffff" d="M 76.773438 120.550781 L 63.117188 120.550781 L 42.625 151.285156 L 63.117188 182.019531 L 76.773438 182.019531 L 56.285156 151.285156 Z M 76.773438 120.550781 " fill-opacity="1" fill-rule="nonzero"/></g><g clip-path="url(#a8a602e372)"><path fill="#ffffff" d="M 298.214844 182.019531 L 311.875 182.019531 L 332.363281 151.285156 L 311.875 120.550781 L 298.214844 120.550781 L 318.707031 151.285156 Z M 298.214844 182.019531 " fill-opacity="1" fill-rule="nonzero"/></g></svg>