<svg xmlns="http://www.w3.org/2000/svg" xmlns:xlink="http://www.w3.org/1999/xlink" width="500" zoomAndPan="magnify" viewBox="0 0 375 374.999991" height="500" preserveAspectRatio="xMidYMid meet" version="1.0"><defs><clipPath id="f988d557fe"><path d="M 86 150.898438 L 259 150.898438 L 259 224.398438 L 86 224.398438 Z M 86 150.898438 " clip-rule="nonzero"/></clipPath><clipPath id="8ed74e8d07"><path d="M 42.398438 156.753906 L 76.898438 156.753906 L 76.898438 218.253906 L 42.398438 218.253906 Z M 42.398438 156.753906 " clip-rule="nonzero"/></clipPath><clipPath id="dd996ee45a"><path d="M 299.117188 157 L 333.617188 157 L 333.617188 218.5 L 299.117188 218.5 Z M 299.117188 157 " clip-rule="nonzero"/></clipPath></defs><g clip-path="url(#f988d557fe)"><path fill="#ffffff" d="M 126.730469 193.40625 L 86.566406 224.351562 L 127.746094 183.167969 L 138.546875 188.777344 L 155.988281 166.121094 L 163.257812 165.953125 L 177.066406 150.898438 L 193.015625 174.71875 L 199.539062 167.28125 L 211.480469 183.003906 L 217.5 183.335938 L 258.910156 224.351562 L 231.4375 204.664062 L 220.636719 204.332031 L 208.449219 192.429688 L 195.78125 201.363281 L 204.5625 187.964844 L 197.792969 178.207031 L 160.246094 209.625 L 177.566406 186.96875 L 167.535156 181.675781 L 174.554688 177.210938 L 175.945312 160.824219 L 122.347656 214.425781 L 133.269531 197.726562 Z M 126.730469 193.40625 " fill-opacity="1" fill-rule="evenodd"/></g><path stroke-linecap="butt" transform="matrix(0.232921, -0.712915, 0.712915, 0.232921, 267.944869, 215.491642)" fill="none" stroke-linejoin="miter" d="M 0.00197993 3.999838 L 80.783141 4.000971 " stroke="#ffffff" stroke-width="8" stroke-opacity="1" stroke-miterlimit="4"/><g clip-path="url(#8ed74e8d07)"><path fill="#ffffff" d="M 76.898438 156.789062 L 63.191406 156.789062 L 42.632812 187.625 L 63.191406 218.464844 L 76.898438 218.464844 L 56.335938 187.625 Z M 76.898438 156.789062 " fill-opacity="1" fill-rule="nonzero"/></g><g clip-path="url(#dd996ee45a)"><path fill="#ffffff" d="M 299.117188 218.464844 L 312.824219 218.464844 L 333.382812 187.625 L 312.824219 156.789062 L 299.117188 156.789062 L 319.675781 187.625 Z M 299.117188 218.464844 " fill-opacity="1" fill-rule="nonzero"/></g></svg>