<svg xmlns="http://www.w3.org/2000/svg" xmlns:xlink="http://www.w3.org/1999/xlink" width="500" zoomAndPan="magnify" viewBox="0 0 375 374.999991" height="500" preserveAspectRatio="xMidYMid meet" version="1.0"><defs><clipPath id="cf03f22b1d"><path d="M 86 150.898438 L 258 150.898438 L 258 224.398438 L 86 224.398438 Z M 86 150.898438 " clip-rule="nonzero"/></clipPath><clipPath id="513c7ac421"><path d="M 42.273438 156.738281 L 76.773438 156.738281 L 76.773438 218.238281 L 42.273438 218.238281 Z M 42.273438 156.738281 " clip-rule="nonzero"/></clipPath><clipPath id="e60b661d8e"><path d="M 298.214844 156.761719 L 332.714844 156.761719 L 332.714844 218.261719 L 298.214844 218.261719 Z M 298.214844 156.761719 " clip-rule="nonzero"/></clipPath></defs><g clip-path="url(#cf03f22b1d)"><path fill="#000000" d="M 126.367188 193.433594 L 86.410156 224.398438 L 127.378906 183.191406 L 138.121094 188.800781 L 155.476562 166.128906 L 162.707031 165.964844 L 176.445312 150.898438 L 192.3125 174.734375 L 198.796875 167.292969 L 210.675781 183.023438 L 216.667969 183.355469 L 257.863281 224.398438 L 230.53125 204.699219 L 219.789062 204.363281 L 207.660156 192.457031 L 195.058594 201.394531 L 203.796875 187.992188 L 197.0625 178.222656 L 159.710938 209.664062 L 176.941406 186.992188 L 166.960938 181.695312 L 173.945312 177.226562 L 175.328125 160.832031 L 122.007812 214.464844 L 132.875 197.757812 Z M 126.367188 193.433594 " fill-opacity="1" fill-rule="evenodd"/></g><path stroke-linecap="butt" transform="matrix(0.232921, -0.712915, 0.712915, 0.232921, 267.144421, 215.257603)" fill="none" stroke-linejoin="miter" d="M 0.00226854 3.999276 L 80.49849 4.000355 " stroke="#000000" stroke-width="8" stroke-opacity="1" stroke-miterlimit="4"/><g clip-path="url(#513c7ac421)"><path fill="#000000" d="M 76.773438 156.765625 L 62.976562 156.765625 L 42.273438 187.488281 L 62.976562 218.210938 L 76.773438 218.210938 L 56.074219 187.488281 Z M 76.773438 156.765625 " fill-opacity="1" fill-rule="nonzero"/></g><g clip-path="url(#e60b661d8e)"><path fill="#000000" d="M 298.214844 218.234375 L 312.015625 218.234375 L 332.714844 187.511719 L 312.015625 156.789062 L 298.214844 156.789062 L 318.917969 187.511719 Z M 298.214844 218.234375 " fill-opacity="1" fill-rule="nonzero"/></g></svg>